<?xml version="1.0" encoding="utf-8"?>
<!-- Generator: Adobe Illustrator 22.0.1, SVG Export Plug-In . SVG Version: 6.00 Build 0)  -->
<svg version="1.1" id="Layer_1" xmlns="http://www.w3.org/2000/svg" xmlns:xlink="http://www.w3.org/1999/xlink" x="0px" y="0px"
	 viewBox="0 0 360.2 239.5" style="enable-background:new 0 0 360.2 239.5;" xml:space="preserve">
<style type="text/css">
	.st0{fill:#009C00;}
	.st1{fill:none;}
	.st2{fill:none;stroke:#FFFFFF;stroke-width:2;}
	.st3{fill:none;stroke:#000000;stroke-width:2;}
	.st4{fill:none;stroke:#FFFFFF;stroke-width:1.5;}
	.st5{fill:#FFFFFF;}
</style>
<rect y="0.7" class="st0" width="360" height="241.3"/>
<line class="st1" x1="2.9" y1="2.6" x2="2.6" y2="239"/>
<line class="st2" x1="2.1" y1="2.6" x2="357" y2="2.6"/>
<line class="st2" x1="357" y1="1.6" x2="357" y2="239.8"/>
<line class="st2" x1="357" y1="238.7" x2="2.6" y2="239"/>
<line class="st2" x1="2.9" y1="35.9" x2="72.8" y2="35.6"/>
<line class="st2" x1="72.8" y1="34.8" x2="73.4" y2="207.1"/>
<line class="st2" x1="73.4" y1="206" x2="2.9" y2="206"/>
<line class="st2" x1="2.6" y1="159.5" x2="26.3" y2="159.2"/>
<line class="st2" x1="2.9" y1="82.4" x2="26.3" y2="82.1"/>
<line class="st2" x1="26.3" y1="81.2" x2="26.3" y2="160.3"/>
<line class="st3" x1="5.7" y1="105.8" x2="5.7" y2="136.7"/>
<line class="st2" x1="180" y1="2.6" x2="180.3" y2="239.6"/>
<line class="st2" x1="286" y1="35.9" x2="357" y2="35.9"/>
<line class="st2" x1="287.1" y1="35.9" x2="287.7" y2="206"/>
<line class="st2" x1="286.7" y1="206" x2="356.7" y2="206"/>
<line class="st2" x1="332.9" y1="82.4" x2="357" y2="82.4"/>
<line class="st2" x1="333.9" y1="82.4" x2="334.5" y2="160.5"/>
<line class="st2" x1="334.5" y1="159.5" x2="357" y2="159.5"/>
<line class="st3" x1="354.5" y1="104.2" x2="354.5" y2="137.9"/>
<ellipse class="st4" cx="180.4" cy="121.4" rx="40.4" ry="38.4"/>
<circle class="st5" cx="180.2" cy="121.4" r="2.7"/>
<circle class="st5" cx="310.8" cy="121.1" r="2.7"/>
<circle class="st5" cx="49.8" cy="120.8" r="2.7"/>
<path class="st4" d="M72.6,91c9.9,6.8,16.4,17.8,16.4,30.2c0,12.3-6.3,23.2-16.1,30"/>
<path class="st4" d="M286.9,90.9c-9.8,7-16,18.1-15.7,30.6c0.3,12.3,6.9,23.1,16.8,29.6"/>
<path class="st4" d="M9.9,2.5C10,3,10,3.4,10,3.9c0,3.4-2.6,6.2-5.9,6.2c-0.4,0-0.9-0.1-1.3-0.1"/>
<path class="st4" d="M357.1,10.1c-0.4,0.1-0.9,0.1-1.4,0c-3.4-0.3-5.9-3.2-5.6-6.4c0-0.4,0.1-0.9,0.3-1.3"/>
<path class="st4" d="M349.9,238.7c-0.1-0.4-0.1-0.9,0-1.4c0.3-3.4,3.2-5.9,6.4-5.5c0.4,0,0.9,0.1,1.3,0.3"/>
<path class="st4" d="M3,231.6c0.4-0.1,0.9-0.1,1.4,0c3.4,0.3,5.9,3.1,5.7,6.3c0,0.4-0.1,0.9-0.3,1.3"/>
<line class="st2" x1="2.9" y1="2.4" x2="3.2" y2="239.5"/>
</svg>
