<?xml version="1.0" encoding="iso-8859-1"?>
<!-- Generator: Adobe Illustrator 19.0.0, SVG Export Plug-In . SVG Version: 6.00 Build 0)  -->
<svg version="1.1" id="Layer_1" xmlns="http://www.w3.org/2000/svg" xmlns:xlink="http://www.w3.org/1999/xlink" x="0px" y="0px"
	 viewBox="0 0 495 495" style="enable-background:new 0 0 495 495;" xml:space="preserve">
<g>
	<path style="fill:#D8D7DA;" d="M195.095,318.084l-32.387-99.685l-77.797-23.727L0.152,256.247
		c1.665,47.89,16.928,92.331,42.059,129.559H147.01L195.095,318.084z"/>
	<path style="fill:#C6C5CA;" d="M347.99,385.806l-48.086-67.723h-104.81l-48.086,67.723l32.387,99.685
		c21.628,6.201,44.474,9.508,68.092,9.508s46.476-3.307,68.114-9.487C315.603,485.492,347.99,385.806,347.99,385.806z"/>
	<path style="fill:#ACABB1;" d="M332.292,218.398l-32.387,99.685l48.086,67.723h104.799c25.131-37.228,40.394-81.67,42.059-129.559
		l-84.759-61.576L332.292,218.398z"/>
	<path style="fill:#C6C5CA;" d="M247.5,76.535v80.255l84.792,61.608l77.797-23.727l32.376-99.631
		c-28.253-36.086-66.308-64.132-110.162-80.136C332.292,14.937,247.5,76.535,247.5,76.535z"/>
	<path style="fill:#E0E0E2;" d="M162.708,218.398L247.5,156.79V76.535l-84.792-61.598c-43.865,15.96-81.92,44.006-110.184,80.092
		l32.387,99.642L162.708,218.398z"/>
	<path style="fill:#3E3D42;" d="M52.524,95.029C19.615,137.044,0,189.982,0,247.5c0,2.926,0.054,5.842,0.152,8.747l84.759-61.576
		L52.524,95.029z"/>
	<path style="fill:#3E3D42;" d="M147.01,385.806H42.211c32.18,47.661,80.527,83.53,137.175,99.707
		C179.397,485.492,147.01,385.806,147.01,385.806z"/>
	<path style="fill:#1D1D1F;" d="M315.603,485.492c56.648-16.156,104.994-52.024,137.186-99.685H347.99L315.603,485.492z"/>
	<path style="fill:#1D1D1F;" d="M442.465,95.04l-32.376,99.631l84.759,61.576c0.098-2.905,0.152-5.82,0.152-8.747
		C495,189.993,475.385,137.055,442.465,95.04z"/>
	<polygon style="fill:#1D1D1F;" points="162.708,218.398 195.095,318.084 299.905,318.084 332.292,218.398 247.5,156.79 	"/>
	<path style="fill:#1D1D1F;" d="M247.5,76.535l84.792-61.598C305.845,5.266,277.287,0,247.489,0
		c-29.787,0-58.345,5.266-84.792,14.904C162.708,14.937,247.5,76.535,247.5,76.535z"/>
</g>
<g>
</g>
<g>
</g>
<g>
</g>
<g>
</g>
<g>
</g>
<g>
</g>
<g>
</g>
<g>
</g>
<g>
</g>
<g>
</g>
<g>
</g>
<g>
</g>
<g>
</g>
<g>
</g>
<g>
</g>
</svg>
